<svg id="Layer_1" data-name="Layer 1" xmlns="http://www.w3.org/2000/svg" viewBox="0 0 387.22 186.66"><path d="M47,105.6c2.57-2.54,4.69-5.64,7.77-8.34,1-.88,2.31-1.88,3.5-1.75,3.93.43,1.74,8.84,1.74,12.23a21.27,21.27,0,0,0,2.52,10.49c.45.85,1.85,1.85,1,3.1a6.93,6.93,0,0,1-5.83-3.1c-2.22-3.07-2.73-8.69-2.91-14.18-1.59.71-2.91,2.79-4.47,4.66a43.31,43.31,0,0,0-4.07,5.05c-1.2,2.06-1.84,6.17-4.08,6.41-1.33.14-2.24-1.16-2.91-2.14C43,104,45.74,99.61,44.07,82.5c.61-.58,1.16-1.6,2.91-1.16,2.39.58,2.34,3.91,2.53,7.18.6,10.55-1.52,8.71-2.5,17.08"/><path d="M257.18,162.88c-1.46-1-1.68-2.57-1.55-4.85a69.37,69.37,0,0,1,2.13-11.85c2.55-10.71,6.14-21.94,8.74-32.62-1,.13-1.66,1.2-2.52,2a25.8,25.8,0,0,1-5.63,4.07c-1.35.66-3.74,1.69-5.05.59s-.55-3.93-.2-6c.85-5.06,1.14-7.41,2.33-12.23.54-2.18.83-4.56,2.53-4.66,1.34-.08,1.63.84,2.33,1.74-.87,5.28-2.14,10.16-2.72,15.73,3.65-1.7,6.26-4.12,9.13-7a14.21,14.21,0,0,0,2.52-2.72c.7-1.29.94-3.43,1.55-5.24a84.63,84.63,0,0,1,4.66-11.84c.77-1.48,1.58-3.14,3.5-3.11,2.45,0,3.3,3.78,2.72,6.6-1.17,5.66-6,9.65-8.35,14.37-1.29,2.58-1.86,5.69-2.72,8.73-4.1,14.45-8.51,30.4-10.29,46.21-.81.95-1.41,2.1-3.11,2.14"/><path d="M204.1,96.67c-1.51,2-2.76.07-4.46,0s-3.43,1.14-4.47,1.94c-2.49,2-6.16,7-6.6,11.46-.29,3,.57,6.93,3.3,7.18a6.94,6.94,0,0,0,3.11-.77c1.81-.91,4.88-4.59,5.63-7.57.46-1.85.5-4-.58-5.44-3.06-.54-2.24,6-4.66,6-1.76,0-2.17-4.08-1.75-5.83a7.37,7.37,0,0,1,8.15-5c3.88,1.61,5,7.65,3.11,12.43a23,23,0,0,1-4.08,6,13.17,13.17,0,0,1-6.41,3.69c-2.73.53-5.31.17-7-1.16a11.4,11.4,0,0,1-3.5-6.41c-.8-5.49,1.31-9.64,3.88-13.4,1.87-2.72,4.39-5.41,6.6-6.6,3.53-1.89,9.51-1.56,9.71,3.49"/><path d="M35.32,103.47c-.06-2.08,1.84-3.4.77-5.44-.8-1.52-3.71-.91-5.05-.19-3.06,1.64-6.11,7.3-5.43,12.42.41,3.13,2.51,5.78,6,6,2.05.15,4.12-.9,6.41-.58a3.59,3.59,0,0,1-1.95,2.72c-6.84,5-14.85-2.14-15.53-9.71C20,102.06,25,94,31,92.79a13.06,13.06,0,0,1,4.67,0c1.9.49,6,3.24,5.24,7.38-.33,1.76-3.75,5.79-5.63,3.3"/><path d="M247,103.47c-.06-2.08,1.85-3.4.78-5.44-.8-1.52-3.71-.91-5-.19-3.06,1.64-6.12,7.3-5.44,12.42a7.23,7.23,0,0,0,3.11,5.25c2.73,1.49,5.89.13,9.32.19a3.58,3.58,0,0,1-1.94,2.72c-6.85,5-14.86-2.14-15.54-9.71-.59-6.65,4.42-14.73,10.49-15.92a13,13,0,0,1,4.66,0c1.9.49,6,3.24,5.24,7.38-.33,1.76-3.75,5.79-5.63,3.3"/><path d="M173.17,99.2c-2.19,1.79-4.72,5.31-4.86,8.54,6.75,1.49,8.46-4.72,8.55-9.9a4.71,4.71,0,0,0-3.69,1.36m-3.69,13.2c.78,3,3.86,4,7.38,3.3,2.4-.51,4.35-2.58,6.4-2.13-.58,3-4.71,5.46-8.15,5.82-4.68.48-8.09-1.43-10.1-4.47a11.12,11.12,0,0,1-1.94-7.18c.34-5.51,5.11-12.8,10.48-14.17,4.83-1.24,8.78,1.45,8.16,7.38a15.41,15.41,0,0,1-1.36,4.27,24.37,24.37,0,0,1-1.75,3.68c-1.85,2.65-5.41,3.67-9.12,3.5"/><path d="M142.22,102.5c-2.16-1.89-2.58-5.09-7-4.66-3.63.35-6.05,4.38-6.42,8.74-.17,2.14,0,5.39,0,8.15,0,3.21.2,5.91-2.52,5.63-3.65-.38-2.52-9.88-2.52-14.17v-5c0-1.48-.3-3.16.39-4.47.66-.63,2.18-.39,2.91,0,3.28-2.66,12.28-4.29,15.34-.19.84,1.13,2.15,4.77-.2,6"/><path d="M337.6,102.5c-2.16-1.89-2.58-5.09-7-4.66-3.61.35-6,4.39-6.41,8.74-.18,2.14,0,5.39,0,8.15,0,3.21.2,5.91-2.52,5.63-3.65-.38-2.52-9.88-2.52-14.17v-5c0-1.48-.3-3.16.39-4.47.66-.63,2.18-.39,2.91,0,3.29-2.65,12.28-4.3,15.33-.19.85,1.13,2.16,4.77-.19,6"/><path d="M114.22,99.78c-2.73,1.16-5.68,4.22-8,6.8s-4.9,5.69-4.66,9.32c3,2.09,6.51-.13,8.63-2.3,5.06-5.18,5.66-13.82,4.38-13.82Zm3.09,14.77c.2.38,4.07,3.18,3.7,3.48-1.88,1.53-3.53,1.34-5.82.19-1-.5-2-1.38-2.72-1.35-1.07,0-2.21,1.52-2.91,1.94a10.86,10.86,0,0,1-5.24,1.94c-3.41.1-7-1.69-7.77-4.47a8.35,8.35,0,0,1,0-4.07c1.42-6.09,9.11-12.78,14.37-15.92,1.27-.77,2.83-1.88,4.66-1.94,2.32-.09,5,2,4.85,4.27-.24,4.15-5.06,12.06-3.12,15.93"/><path d="M156.19,99.78c-2.73,1.16-5.68,4.22-8,6.8s-4.9,5.69-4.65,9.32c3,2.09,6.51-.13,8.63-2.3,5.06-5.18,5.65-13.82,4.37-13.82Zm3.09,14.77c.2.38,4.06,3.18,3.7,3.48-1.88,1.53-3.53,1.34-5.82.19-1-.5-2-1.38-2.72-1.35-1.07,0-2.21,1.52-2.91,1.94a10.89,10.89,0,0,1-5.25,1.94c-3.4.1-7-1.69-7.76-4.47a8.35,8.35,0,0,1,0-4.07c1.42-6.09,9.11-12.78,14.37-15.92,1.27-.77,2.82-1.88,4.66-1.94,2.32-.09,5,2,4.85,4.27-.24,4.15-5.06,12.06-3.12,15.93"/><path d="M192.87,58.11c-2.73,1.16-5.68,4.22-8,6.8s-4.9,5.69-4.66,9.31c3,2.1,6.51-.12,8.63-2.29,5.06-5.18,5.66-13.82,4.38-13.82ZM196,72.88c.19.38,4.06,3.18,3.7,3.48-1.89,1.53-3.54,1.33-5.83.19-1-.5-2-1.38-2.72-1.36-1.07,0-2.21,1.53-2.91,2A10.86,10.86,0,0,1,183,79.08c-3.41.1-7-1.69-7.77-4.47a8.35,8.35,0,0,1,0-4.07c1.42-6.09,9.11-12.78,14.37-15.92,1.27-.77,2.83-1.88,4.66-1.95,2.32-.08,5,2,4.85,4.27C198.84,61.1,194,69,196,72.88"/><path d="M228.53,119.2c-2.75,1.33-4.69-1.44-5.05-3.3-1-5.32,3.42-11.3,1.94-16.12-4.71,3.31-7.8,8.1-11.84,12.23-1.32,1.34-2.55,3-4.66,3.3-4.43-2.5.3-9.21-.2-14.36,2.17-3,7.16,0,5.05,3.88,3.39-2.22,7.55-8.78,12-10.1,3.68-1.08,5.5,2.09,5.24,6-.31,4.75-3.39,10.18-3.1,15,.08,1.4.79,2.15.58,3.5"/><path d="M76.87,109.88c-.94.17-1.75,1.16-2.52,1.94a68.25,68.25,0,0,1-5,4.66c-1,.8-1.89,1.94-2.91,1.94a4,4,0,0,1-2.92-2.53c-.22-1.23.54-3.11,1-4.65,1.09-3.84,2.85-8.85,4.67-11.66a3.74,3.74,0,0,1,3.1,1.17c.38,2.59-1,5.06-1.36,7.57a28.87,28.87,0,0,0,3.69-3.3c1-1,2.24-3.11,3.88-3.1,3.53,0,2.61,7.66,3.11,10.87.4,2.53,1.56,5.11,4.08,4.46,3.63-.93,6.44-10.23,5.82-16.11a6,6,0,0,0-2.33-4.47c-.28-.3-1.52-.66-1-1.16-.07-.33.16-.37.39-.39,4.56-1.7,7.36,2.83,7.57,7.18.3,6-2.52,15.18-6,18.26-6.33,5.56-14.38-1.86-13.2-10.68"/><path d="M366.71,98.23c-2.91,5.09-7.46,9.57-6.6,18,.11,1.17.84,2.22.38,3.69-5.76,2-6-6.27-5.05-11.07-.57-.14-1.12.46-1.55.78-2.46,1.84-4.75,4.06-7.76,5.83a8.51,8.51,0,0,1-3.89,1.36c-3.25-.1-4.73-3.1-4.27-6.8.55-4.41,2.41-12.32,5.63-12.23a2.74,2.74,0,0,1,2.33,2.72c.05,1.52-1.26,3.51-1.94,5.24s-1.59,3.55-1.36,5.82a8.83,8.83,0,0,0,4.08-1.55,93.61,93.61,0,0,0,9.12-6c.55-.4,1.43-.83,1.75-1.16.86-.9,1.45-2.6,2.33-3.89s1.79-2.77,2.91-3.1a3.35,3.35,0,0,1,3.89,2.33"/><path d="M285.27,105c.63.07,1.32-.62,2-1.16,2.26-2,5.46-6,10.29-5.44,2.43.3,4.18,4.65,3.88,8.54.95-.36,1.48-1.7,2.72-1.74,1.74-.07,3,2.29,4.08,4.07,2.49,4.22,4.33,8.58,11.64,8,1.45-.12,2.64-1.21,4.12,0-.47,1.63.08,2.54-1.48,3.07a26.78,26.78,0,0,1-7.69.81c-5.38-.38-8.39-5.36-10.48-8.74-2.25,1.95-3.16,5.26-5.82,6.79-1.41-.85-3.11-1.21-3.5-2.71s.43-4.42.78-6.6.93-4.45.19-6.22c-2.39-.2-3.69,1.54-5,2.91a50.57,50.57,0,0,0-6.61,8.94c-.84,1.33-2.15,4.26-3.3,4.46-1.91.35-2.28-1.7-3.1-2.91,0-1.84,1.47-5.9,2.33-10.29.75-3.87.16-9.46,3.1-9.9a2.73,2.73,0,0,1,2.72,1.75c.61,2.33-1.19,3.75-.78,6.4"/><path d="M127.38,57.39c-.06,1.82,2.13,4.29,3.24,6.07.62,1,1.25,2,1.82,2.83s1,2.31,2,2.23c.2-5.4.68-10.51,1-15.79-3.29.48-8,2.06-8.1,4.66m13.16-9.51c3.05.41,4.58.13,7.25,1.12.85.32,2.17,1.08,2.23,2-3.83.49-6.41.06-9.89.89-1.26,8.39-1.24,18.06-2.22,26.72-2.62,0-3.54-3-4.86-4.86-2.65-3.73-5.24-7.12-7.89-11.53-1.26-2.1-3.34-5.13-2.63-7.49,1.26-4.26,8.31-5.4,13.35-6.48.54-3.07,1-7.15,1.62-10.93s1.55-8.7,3.65-10.12c1.26.46,2.95,1.15,3.23,2.43.22,1-.58,3-1,4.66a88.61,88.61,0,0,0-2.83,13.56"/><path d="M34.26,67.3c-1,2.07-3.17,2.9-3.24,5.87,2.91,1.29,8.12-1.67,8.51-3.84.55-3.11-2.51-6.12-3.85-8.3C34,58.27,32,55.11,32,50.91c.05-3.72,2.6-5.9,6.67-5.87s7.74,2.32,8.3,4.05c.32,1,.38,5-2.83,4-1.49-.43-.87-2.54-1.82-3.44-1.3-1.23-5.17-.61-5.67,1.41-.74,3,2.29,7,3.44,8.91,1.83,3,5.1,7.69,3.64,12.14a10.66,10.66,0,0,1-2.83,3.44,13.91,13.91,0,0,1-10.72,3C27.54,78.23,24.84,76,26,72.57c.94-2.89,4.38-7.73,8.29-5.27"/><path d="M258.34,48.28c-.15,1.61.44,3.95-.61,4.66a2.38,2.38,0,0,1-3-1c-.41-.78.18-1.48-.61-2.22-1.33-1.26-5.17-.58-5.67,1.41-.69,2.84,1.84,6.25,3.45,8.91,1.77,2.93,5.57,8.9,3.23,12.95-1.68,2.92-9.15,7.68-14.77,5.26a4.44,4.44,0,0,1-2.63-5.67c.92-2.81,4.15-7.62,8.3-5.25-1,2.06-3.18,2.89-3.24,5.86,2.86,1.27,8.1-1.62,8.5-3.84a6.34,6.34,0,0,0-.21-1.82c-1-4.32-7.38-9.53-7.28-16.6,0-3.54,2.28-5.9,6.68-5.87,3.37,0,5.31,1.23,7.89,3.24"/><path d="M92.23,52.33a17.8,17.8,0,0,0-2.63.81c-3.54,1.52-8.78,8.53-8.71,14,0,2.22,1.06,5.54,3.24,5.87,3.2.49,5.48-2.33,6.88-4.45a16.38,16.38,0,0,0,2-3.65c.49-1.86.51-4.48-.61-5.66-2.86-.66-2.25,6.14-4.65,6.07-1.79,0-2.18-4.5-1.62-6.27a8.12,8.12,0,0,1,5.26-4.66c1-.18,1.83.13,2.83,0,2.86,1.85,4.41,4,4,8.3-.55,6.44-6.2,13.19-11.94,14-3.23.44-5,0-6.48-1.21a11.62,11.62,0,0,1-3.64-7.49,15.37,15.37,0,0,1,.2-3.64c.85-5,5.33-12,9.51-14.77a8.64,8.64,0,0,1,6.68-1.62c1.94.34,4.85,2.87,3.85,4.65-.84,1.49-3,.5-4.25-.2"/><path d="M57.6,50.3a2.65,2.65,0,0,1,0,2C62.55,54.41,68.35,57.13,72,61c1.24,1.34,3,3.73,2.63,6.27-.42,3-4.51,5.56-8.29,6.08-3.5.47-8.22-.24-8.71-3-.62-3.54,4.77-9.24,8.3-6.68.14,2.11-2.88,2.77-3,5.26,1.06.61,2.8,0,4-.4,5.73-1.9,1-6.08-2.22-8.3a24.74,24.74,0,0,0-7.49-3.64c-1.14,2.54-.94,6.49-.81,9.51a216.87,216.87,0,0,0,2.83,25.09c-.88.76-3.09,1.85-4.45.82-1.06-.82-1.62-6.18-2-8.91-1-6.69-1.5-13-2.84-19-.83-3.76-3.79-11.86,1.42-12.35.88-1.15.78-2.74,2.43-3,1.44-.26,2.78.81,3.84,1.62"/><path d="M225,57.18c-1.33,1.56-3,3.54-2.84,6.28,6.57,1.43,8.59-4.49,8.3-9.92-2.64,0-4.23,2.2-5.46,3.64m-1.82,10.93c.63,2.43,2.83,3.54,5.05,3.65,3.34.16,6.22-2.75,8.91-2.43-1.16,3.42-4.89,5.66-8.91,5.87-7.71.4-13.27-6.49-10.93-14.78.89-3.14,4-7.85,6.89-9.71,1.43-.94,4.57-2.24,7.28-1.62s4.51,3.7,4.05,7.69c-.37,3.19-2.86,8-4.45,9.31-1.83,1.56-4.39,2.16-7.89,2"/><path d="M119.56,58.2c-2-.64-1.94-3-3.44-3.85-2.45-1.46-5.56-.5-7.29,1.22a7.36,7.36,0,0,0-2,2.63c-1.36,4.23-1,10.72-.81,16.39-.85.83-1.14,1.76-2.63,1.62-2.83-.27-2.68-6.23-2.43-9.71a78.15,78.15,0,0,0,0-8.1c-.12-2.66-.75-5.18.6-6.27,1-.41,1.63.06,2.64.2,3.68-2.9,13.28-4.08,15.78.6.68,1.28,1.26,4.07-.4,5.27"/><path d="M211.94,41.26c1.19-5.41,2.46-10.74,3.44-16.25-.5-1.14-2.31-1.52-3.84-1-1.13,1.46-1.41,3.56-1.83,5.46-.92,4.25-1.87,8.5-2.75,12.79l-.89,4.54a180.82,180.82,0,0,0-2.83,20.52c-.31,4.17-1.38,10.68,2.22,11.33,2.73.48,5.11-2,6.68-3.24,2-1.59,4.15-3,4.05-5.47-3-.16-5.06,3.41-8.3,3-.32-8.93,1.15-17.14,2.63-24.89.18-.92.36-1.84.55-2.75Z"/><path d="M204.3,33.93l-8.51-3.57a1.3,1.3,0,0,0-1.68.76,1.32,1.32,0,0,0,.77,1.68l3.7,1.7C142.69,36,142.26,71.34,142.26,71.34c.25,1.17,2,2.9,3.1,2.85.75,0,1.91-1.06,2.84-1.83,2.78-2.31,4.78-5,7.28-6.88.22,5,1.4,9.11,4.25,11.33a7,7,0,0,0,5.67,1.42c5.76-1,10.48-13.53,9.51-21.25a12,12,0,0,0-.81-3c-1-2.05-5.22-5.58-7.29-2.43,1.17,1.06,2,1.39,2.63,2.63,2.17,4-.13,13.28-2.22,16.59-.7,1.1-2.11,2.4-3.24,2.44-4.64.12-3.43-7.34-4-11.75-.19-1.37-1.08-3.82-2.63-3.84s-3.06,2-4.05,3c-1.42,1.42-3.38,4-3.77,3.27,5-23.53,42.09-27.79,49.33-28.4l-3.32,2.24a1.3,1.3,0,0,0-.51,1.77,1.29,1.29,0,0,0,1.14.67,1.31,1.31,0,0,0,.63-.16l7.66-4.62a.81.81,0,0,0,.42-.77.83.83,0,0,0-.53-.7"/></svg>