<svg id="Layer_1" data-name="Layer 1" xmlns="http://www.w3.org/2000/svg" viewBox="0 0 387.22 186.66"><defs><style>.cls-1{fill:#f6b207;}.cls-2{fill:#e32434;}</style></defs><path class="cls-1" d="M46.75,104.27c2.54-2.52,4.64-5.59,7.69-8.27,1-.86,2.29-1.85,3.46-1.73,3.9.43,1.73,8.76,1.73,12.11a21,21,0,0,0,2.5,10.39c.44.84,1.83,1.83,1,3.07a6.87,6.87,0,0,1-5.77-3.07c-2.2-3-2.7-8.61-2.88-14-1.57.7-2.88,2.76-4.42,4.62a42.51,42.51,0,0,0-4,5c-1.18,2-1.82,6.11-4,6.35-1.31.14-2.21-1.14-2.88-2.12,3.75-13.94,6.43-18.24,4.78-35.18.61-.57,1.14-1.58,2.88-1.15,2.36.58,2.32,3.87,2.5,7.11.6,10.45-1.5,8.63-2.47,16.92"/><path class="cls-2" d="M254.84,161c-1.45-1-1.66-2.55-1.54-4.81a68.69,68.69,0,0,1,2.12-11.72c2.52-10.62,6.07-21.73,8.65-32.3-1,.13-1.65,1.19-2.5,1.92a25.29,25.29,0,0,1-5.57,4c-1.34.65-3.7,1.67-5,.58-1.16-1-.53-3.89-.19-6,.85-5,1.13-7.34,2.31-12.11.54-2.16.82-4.51,2.5-4.62,1.32-.08,1.62.84,2.31,1.73-.86,5.23-2.12,10.06-2.69,15.58,3.61-1.69,6.19-4.08,9-6.93a13.93,13.93,0,0,0,2.5-2.69c.69-1.27.93-3.4,1.54-5.19a84.63,84.63,0,0,1,4.61-11.72c.77-1.46,1.57-3.11,3.46-3.08,2.44,0,3.27,3.75,2.69,6.54-1.15,5.59-5.93,9.54-8.26,14.22-1.27,2.56-1.84,5.63-2.69,8.65-4.06,14.3-8.43,30.1-10.19,45.76-.8.93-1.39,2.07-3.08,2.11"/><path class="cls-1" d="M202.29,95.43c-1.5,1.93-2.74.06-4.42,0s-3.4,1.12-4.43,1.92c-2.47,1.93-6.1,6.94-6.53,11.34-.29,2.94.56,6.86,3.27,7.11a6.86,6.86,0,0,0,3.07-.76c1.8-.91,4.83-4.55,5.58-7.5.46-1.83.5-4-.58-5.39-3-.53-2.21,5.95-4.61,6-1.74,0-2.15-4-1.73-5.76a7.29,7.29,0,0,1,8.07-5c3.84,1.59,5,7.56,3.08,12.3a22.83,22.83,0,0,1-4,6,13,13,0,0,1-6.35,3.65c-2.7.53-5.25.18-6.91-1.15a11.22,11.22,0,0,1-3.46-6.34c-.8-5.43,1.29-9.55,3.84-13.27A21.93,21.93,0,0,1,192.67,92c3.5-1.87,9.42-1.54,9.62,3.47"/><path class="cls-1" d="M35.17,102.16c-.06-2.06,1.83-3.37.77-5.39-.8-1.51-3.68-.9-5-.19-3,1.63-6.05,7.23-5.38,12.3.41,3.1,2.49,5.72,6,6,2,.14,4.08-.89,6.34-.57A3.54,3.54,0,0,1,35.94,117c-6.78,4.89-14.71-2.12-15.38-9.62-.59-6.58,4.38-14.58,10.38-15.76a12.73,12.73,0,0,1,4.61,0c1.89.49,6,3.21,5.2,7.31-.33,1.74-3.71,5.74-5.58,3.27"/><path class="cls-2" d="M244.8,102.16c-.06-2.06,1.83-3.37.77-5.39-.79-1.5-3.68-.9-5-.19-3,1.62-6,7.23-5.38,12.3a7.15,7.15,0,0,0,3.07,5.19c2.71,1.48,5.84.14,9.23.2a3.54,3.54,0,0,1-1.92,2.69c-6.78,4.89-14.71-2.12-15.38-9.62-.59-6.58,4.38-14.58,10.38-15.76a12.73,12.73,0,0,1,4.61,0c1.89.49,6,3.21,5.19,7.31-.32,1.74-3.71,5.74-5.57,3.27"/><path class="cls-1" d="M168,111c.78,3,3.83,4,7.31,3.27,2.38-.51,4.31-2.56,6.34-2.12-.57,3-4.66,5.42-8.07,5.77a10.12,10.12,0,0,1-10-4.43,11.07,11.07,0,0,1-1.92-7.1c.34-5.46,5.06-12.68,10.38-14,4.78-1.22,8.69,1.44,8.08,7.31a15.2,15.2,0,0,1-1.35,4.22,25.63,25.63,0,0,1-1.73,3.66c-1.83,2.62-5.36,3.62-9,3.46m3.66-13.07c-2.17,1.77-4.68,5.26-4.81,8.46,6.69,1.47,8.38-4.68,8.46-9.81a4.68,4.68,0,0,0-3.65,1.35"/><path class="cls-1" d="M141,101.19c-2.15-1.86-2.56-5-6.92-4.61-3.59.35-6,4.34-6.35,8.65-.17,2.13,0,5.34,0,8.07,0,3.19.2,5.86-2.49,5.58-3.62-.38-2.5-9.78-2.5-14v-5c0-1.47-.3-3.13.38-4.42.66-.63,2.17-.4,2.89,0,3.24-2.64,12.15-4.26,15.18-.19.84,1.12,2.13,4.72-.19,6"/><path class="cls-2" d="M334.47,101.19c-2.15-1.86-2.56-5-6.93-4.61-3.57.35-6,4.35-6.34,8.65-.18,2.13,0,5.34,0,8.07,0,3.19.19,5.86-2.5,5.58-3.61-.38-2.5-9.78-2.5-14v-5c0-1.47-.29-3.13.39-4.42.66-.63,2.16-.4,2.88,0,3.26-2.63,12.16-4.26,15.19-.19.84,1.12,2.13,4.72-.19,6"/><path class="cls-1" d="M116.36,113.12c.19.39,4,3.16,3.66,3.45-1.87,1.52-3.5,1.33-5.77.19-1-.5-2-1.36-2.69-1.34-1.06,0-2.19,1.51-2.88,1.92a10.76,10.76,0,0,1-5.19,1.93c-3.38.1-6.91-1.68-7.69-4.43a8.19,8.19,0,0,1,0-4c1.4-6,9-12.65,14.22-15.77,1.26-.75,2.8-1.85,4.62-1.92,2.3-.08,4.94,2,4.8,4.23-.23,4.11-5,11.94-3.08,15.77M113.29,98.5c-2.7,1.15-5.62,4.18-7.88,6.73s-4.85,5.64-4.61,9.23c2.94,2.07,6.45-.13,8.54-2.27,5-5.14,5.6-13.69,4.34-13.69Z"/><path class="cls-1" d="M157.91,113.12c.19.39,4,3.16,3.66,3.45-1.86,1.52-3.5,1.33-5.77.19-1-.5-2-1.36-2.69-1.34-1.06,0-2.19,1.51-2.88,1.92a10.76,10.76,0,0,1-5.19,1.93c-3.37.1-6.91-1.68-7.69-4.43a8.31,8.31,0,0,1,0-4c1.41-6,9-12.65,14.23-15.77,1.26-.75,2.8-1.85,4.61-1.92,2.3-.08,4.94,2,4.81,4.23-.24,4.11-5,11.94-3.09,15.77M154.84,98.5c-2.7,1.15-5.61,4.18-7.88,6.73s-4.85,5.64-4.61,9.23c3,2.07,6.45-.13,8.55-2.27,5-5.14,5.6-13.69,4.33-13.69Z"/><path class="cls-2" d="M194.23,71.87c.19.38,4,3.15,3.66,3.45-1.86,1.51-3.5,1.32-5.76.19-1-.5-2-1.37-2.69-1.35-1.07,0-2.2,1.51-2.89,1.93A10.81,10.81,0,0,1,181.36,78c-3.37.1-6.91-1.67-7.69-4.43a8.31,8.31,0,0,1,0-4c1.4-6,9-12.65,14.22-15.77,1.27-.75,2.81-1.85,4.62-1.92,2.3-.08,4.94,2,4.81,4.23-.24,4.11-5,11.94-3.09,15.78m-3.06-14.62c-2.71,1.14-5.63,4.17-7.89,6.72s-4.85,5.64-4.61,9.23c3,2.07,6.45-.12,8.55-2.27,5-5.14,5.6-13.68,4.33-13.68Z"/><path class="cls-1" d="M226.47,117.73c-2.72,1.32-4.64-1.42-5-3.27-1-5.27,3.39-11.19,1.93-16-4.67,3.28-7.73,8-11.73,12.11-1.3,1.33-2.53,3-4.61,3.27-4.39-2.48.29-9.12-.2-14.22,2.15-3,7.09,0,5,3.84,3.36-2.19,7.47-8.69,11.92-10,3.64-1.07,5.45,2.08,5.19,6-.31,4.7-3.35,10.08-3.07,14.8.08,1.39.78,2.13.57,3.47"/><path class="cls-1" d="M76.32,108.5c-.94.17-1.73,1.15-2.51,1.92a64.68,64.68,0,0,1-5,4.62c-1,.79-1.87,1.92-2.89,1.92a4,4,0,0,1-2.88-2.5c-.22-1.22.53-3.09,1-4.62,1.08-3.8,2.81-8.75,4.62-11.53a3.68,3.68,0,0,1,3.07,1.15c.37,2.57-1,5-1.34,7.5A30.72,30.72,0,0,0,74,103.69c.95-.94,2.21-3.07,3.84-3.07,3.49,0,2.58,7.59,3.08,10.76.39,2.51,1.54,5.06,4,4.42,3.6-.92,6.38-10.13,5.77-16a6,6,0,0,0-2.3-4.42c-.29-.3-1.51-.66-1-1.16-.07-.32.15-.36.38-.38,4.52-1.68,7.28,2.8,7.5,7.11.29,5.94-2.5,15-6,18.07-6.27,5.51-14.24-1.83-13.07-10.57"/><path class="cls-2" d="M363.28,97c-2.87,5.05-7.38,9.48-6.53,17.88.11,1.16.84,2.19.38,3.66-5.7,1.94-5.93-6.22-5-11-.57-.15-1.11.45-1.53.76-2.45,1.83-4.71,4-7.69,5.77a8.31,8.31,0,0,1-3.85,1.35c-3.22-.09-4.68-3.07-4.23-6.73.54-4.37,2.39-12.2,5.58-12.11a2.72,2.72,0,0,1,2.31,2.69c0,1.51-1.26,3.48-1.93,5.19s-1.58,3.52-1.35,5.77a8.67,8.67,0,0,0,4-1.54,93.71,93.71,0,0,0,9-6c.53-.39,1.41-.82,1.73-1.15.85-.89,1.44-2.57,2.3-3.85s1.78-2.74,2.89-3.07a3.31,3.31,0,0,1,3.84,2.3"/><path class="cls-2" d="M282.66,103.69c.62.07,1.3-.61,1.92-1.15,2.24-2,5.41-6,10.19-5.38,2.41.29,4.14,4.6,3.84,8.45.94-.36,1.46-1.68,2.69-1.72,1.73-.07,3,2.27,4,4,2.47,4.18,4.3,8.5,11.53,7.88,1.44-.12,2.61-1.2,4.08,0-.47,1.61.08,2.51-1.46,3a26.34,26.34,0,0,1-7.62.8c-5.33-.38-8.3-5.3-10.38-8.65-2.22,1.93-3.12,5.2-5.76,6.72-1.4-.84-3.08-1.2-3.46-2.69s.43-4.37.77-6.53.92-4.4.19-6.15c-2.37-.21-3.66,1.51-5,2.88a49.8,49.8,0,0,0-6.53,8.84c-.84,1.33-2.14,4.22-3.27,4.42-1.89.35-2.26-1.68-3.08-2.88,0-1.82,1.46-5.84,2.31-10.19.75-3.83.16-9.36,3.07-9.8a2.74,2.74,0,0,1,2.7,1.73c.6,2.31-1.19,3.71-.77,6.34"/><path class="cls-1" d="M139.35,47.11c3,.41,4.54.14,7.18,1.12.85.31,2.15,1.07,2.21,2-3.79.49-6.34.06-9.79.89-1.25,8.3-1.23,17.88-2.2,26.45-2.6,0-3.51-3-4.81-4.81-2.63-3.69-5.19-7.05-7.82-11.42-1.25-2.08-3.3-5.08-2.6-7.42,1.25-4.21,8.23-5.33,13.22-6.41.53-3,1-7.08,1.6-10.82s1.54-8.61,3.61-10c1.26.46,2.93,1.14,3.21,2.41.21,1-.58,3-1,4.6a88.62,88.62,0,0,0-2.8,13.43m-13,9.42c-.07,1.8,2.1,4.25,3.2,6,.62,1,1.24,1.95,1.81,2.81s.95,2.28,2,2.2c.2-5.34.68-10.4,1-15.63-3.25.47-7.93,2-8,4.61"/><path class="cls-1" d="M34.13,66.35c-1,2.05-3.15,2.87-3.21,5.81,2.87,1.27,8-1.66,8.42-3.81.54-3.07-2.49-6-3.81-8.21-1.68-2.74-3.66-5.86-3.61-10,0-3.68,2.58-5.85,6.61-5.81s7.66,2.29,8.22,4c.32,1,.38,4.93-2.8,4-1.48-.43-.86-2.51-1.81-3.41-1.29-1.21-5.11-.59-5.61,1.41-.74,3,2.27,6.93,3.41,8.81,1.81,3,5.05,7.61,3.6,12a10.61,10.61,0,0,1-2.8,3.42,13.8,13.8,0,0,1-10.62,3c-2.65-.4-5.33-2.58-4.21-6,.94-2.86,4.34-7.65,8.22-5.21"/><path class="cls-2" d="M256,47.51c-.15,1.59.43,3.91-.6,4.61a2.36,2.36,0,0,1-3-1c-.4-.78.18-1.47-.6-2.21-1.32-1.24-5.12-.57-5.61,1.41-.69,2.81,1.82,6.18,3.41,8.81C251.33,62,255.1,68,252.78,72c-1.66,2.89-9.06,7.6-14.62,5.21a4.39,4.39,0,0,1-2.61-5.61c.91-2.79,4.11-7.56,8.22-5.21-1,2.05-3.15,2.87-3.21,5.81,2.84,1.26,8-1.61,8.42-3.81a6.22,6.22,0,0,0-.21-1.8c-1-4.28-7.31-9.43-7.21-16.43.05-3.51,2.26-5.85,6.61-5.81,3.34,0,5.26,1.21,7.82,3.2"/><path class="cls-1" d="M91.52,51.52a17.86,17.86,0,0,0-2.61.8c-3.5,1.51-8.69,8.44-8.61,13.83,0,2.19,1,5.48,3.2,5.81,3.17.49,5.42-2.31,6.81-4.41a16,16,0,0,0,2-3.61c.49-1.85.51-4.44-.6-5.6-2.84-.66-2.23,6.07-4.61,6-1.77-.06-2.16-4.46-1.6-6.22a8.06,8.06,0,0,1,5.21-4.61c1-.17,1.82.14,2.8,0,2.84,1.83,4.37,4,4,8.22C97,68.12,91.39,74.8,85.71,75.56c-3.2.44-5,0-6.41-1.2A11.44,11.44,0,0,1,75.69,67a15.13,15.13,0,0,1,.2-3.61c.84-5,5.27-11.88,9.42-14.62a8.55,8.55,0,0,1,6.61-1.61c1.92.34,4.8,2.84,3.81,4.61-.83,1.47-2.93.49-4.21-.2"/><path class="cls-1" d="M57.24,49.52a2.66,2.66,0,0,1,0,2c4.9,2.06,10.64,4.75,14.22,8.61,1.23,1.33,3,3.69,2.61,6.22-.42,3-4.48,5.5-8.22,6-3.46.47-8.13-.23-8.61-3-.62-3.5,4.71-9.15,8.21-6.61.14,2.09-2.85,2.75-3,5.21,1,.6,2.77,0,4-.4,5.66-1.88,1-6-2.21-8.21a24.38,24.38,0,0,0-7.41-3.61c-1.14,2.52-.94,6.43-.81,9.42A215,215,0,0,0,58.84,90c-.87.75-3.06,1.83-4.41.81-1-.81-1.6-6.12-2-8.82-1-6.63-1.48-12.88-2.81-18.84C48.8,59.42,45.86,51.4,51,50.92c.88-1.14.78-2.72,2.41-3,1.43-.25,2.75.79,3.81,1.61"/><path class="cls-2" d="M221.21,67.15c.63,2.4,2.81,3.5,5,3.61,3.3.16,6.15-2.72,8.82-2.41-1.15,3.39-4.84,5.6-8.82,5.81-7.64.4-13.14-6.42-10.82-14.62.88-3.12,4-7.78,6.81-9.62,1.42-.94,4.53-2.22,7.22-1.61s4.46,3.66,4,7.62c-.36,3.16-2.83,7.87-4.4,9.22-1.82,1.54-4.35,2.13-7.82,2M223,56.33c-1.31,1.53-2.94,3.5-2.8,6.21,6.5,1.41,8.5-4.44,8.22-9.82-2.62,0-4.19,2.18-5.42,3.61"/><path class="cls-1" d="M118.58,57.33c-2-.63-1.92-2.92-3.41-3.81-2.42-1.44-5.5-.49-7.21,1.2a7.56,7.56,0,0,0-2,2.61c-1.34,4.19-1,10.61-.8,16.23-.84.83-1.13,1.75-2.6,1.6-2.8-.26-2.65-6.16-2.41-9.61a76.62,76.62,0,0,0,0-8c-.11-2.64-.73-5.13.6-6.21,1-.4,1.61.07,2.61.2,3.65-2.87,13.15-4,15.63.6.67,1.26,1.24,4-.4,5.21"/><path class="cls-2" d="M210.05,40.56c1.18-5.36,2.44-10.64,3.4-16.09-.49-1.13-2.28-1.5-3.8-1-1.12,1.45-1.4,3.53-1.81,5.41-.92,4.21-1.85,8.41-2.72,12.66L204.23,46a179.88,179.88,0,0,0-2.8,20.32c-.31,4.13-1.37,10.58,2.2,11.22,2.7.48,5.07-1.95,6.62-3.21,1.93-1.57,4.1-3,4-5.41-3-.16-5,3.37-8.21,3-.32-8.84,1.14-17,2.6-24.65.18-.91.36-1.82.55-2.72Z"/><path class="cls-2" d="M202.48,33.3l-8.42-3.54a1.29,1.29,0,0,0-.91,2.42l3.67,1.69c-55.34,1.46-55.76,36.48-55.76,36.48.24,1.15,2,2.87,3.07,2.81.74,0,1.89-1,2.8-1.8,2.76-2.29,4.74-4.9,7.21-6.81.23,5,1.39,9,4.21,11.21A6.91,6.91,0,0,0,164,77.17c5.72-1,10.39-13.4,9.42-21a11.82,11.82,0,0,0-.8-3c-1-2-5.16-5.52-7.21-2.4,1.15,1.05,1.93,1.37,2.6,2.6,2.15,4-.13,13.15-2.21,16.43-.68,1.09-2.08,2.38-3.2,2.41-4.6.13-3.4-7.26-4-11.62-.19-1.37-1.07-3.79-2.6-3.81s-3,2-4,3c-1.41,1.41-3.35,3.93-3.74,3.24,4.94-23.3,41.68-27.51,48.85-28.12l-3.29,2.21a1.31,1.31,0,0,0-.51,1.76,1.29,1.29,0,0,0,1.13.66,1.39,1.39,0,0,0,.63-.15l7.58-4.58a.81.81,0,0,0-.11-1.46"/></svg>